<svg height="384" preserveAspectRatio="xMidYMid" viewBox="0 0 256 384" width="256" xmlns="http://www.w3.org/2000/svg"><path d="m64 384c35.328 0 64-28.672 64-64v-64h-64c-35.328 0-64 28.672-64 64s28.672 64 64 64z" fill="#0acf83"/><path d="m0 192c0-35.328 28.672-64 64-64h64v128h-64c-35.328 0-64-28.672-64-64z" fill="#a259ff"/><path d="m0 64c0-35.328 28.672-64 64-64h64v128h-64c-35.328 0-64-28.672-64-64z" fill="#f24e1e"/><path d="m128 0h64c35.328 0 64 28.672 64 64s-28.672 64-64 64h-64z" fill="#ff7262"/><path d="m256 192c0 35.328-28.672 64-64 64s-64-28.672-64-64 28.672-64 64-64 64 28.672 64 64z" fill="#1abcfe"/></svg>